#Comment line ignore any data following # character 
#Hierarchical Translation and Rotation (.htr) file 
[Header]	
#Header keywords are followed by a single value 
FileType HTR		#Single word string
DataType HTRS		#Translation followed by rotation and scale data
FileVersion 1		#integer
NumSegments 84		#integer
NumFrames 2		#integer
DataFrameRate 30		#integer, data frame rate in this file
EulerRotationOrder ZYX
CalibrationUnits mm
RotationUnits Degrees
GlobalAxisofGravity Y
BoneLengthAxis Y
ScaleFactor 1.00
[SegmentNames&Hierarchy]
#CHILD	PARENT
MASTER GLOBAL
root MASTER
chest root
L_mid_tent01 root
R_mid_tent01 root
spine01 root
Bip01_Neck chest
L_humerus chest
R_humerus chest
weapon_bone chest
Bip01_Head Bip01_Neck
eye_left_bone Bip01_Head
eye_right_bone Bip01_Head
L_forearm L_humerus
L_front_hand L_forearm
L_weapon_bone L_forearm
L_front_hand01_01 L_front_hand
L_front_hand02_01 L_front_hand
L_front_hand03_01 L_front_hand
L_front_hand01_02 L_front_hand01_01
L_front_hand02_02 L_front_hand02_01
L_front_hand03_02 L_front_hand03_01
R_forearm R_humerus
R_front_hand R_forearm
R_weapon_bone R_forearm
R_front_hand01_01 R_front_hand
R_front_hand02_01 R_front_hand
R_front_hand03_01 R_front_hand
R_front_hand01_02 R_front_hand01_01
R_front_hand02_02 R_front_hand02_01
R_front_hand03_02 R_front_hand03_01
null_rope01_connect L_mid_tent01
Rope1_Seg01 null_rope01_connect
Rope1_Seg02 Rope1_Seg01
Rope1_Seg03 Rope1_Seg02
Rope1_Seg04 Rope1_Seg03
Rope1_Seg05 Rope1_Seg04
Rope1_Seg06 Rope1_Seg05
Rope1_Seg07 Rope1_Seg06
Rope1_Seg09 Rope1_Seg07
L_mid_hand01 Rope1_Seg09
L_mid_hand02 Rope1_Seg09
L_mid_hand03 Rope1_Seg09
null_rope02_connect R_mid_tent01
Rope2_Seg01 null_rope02_connect
Rope2_Seg02 Rope2_Seg01
Rope2_Seg03 Rope2_Seg02
Rope2_Seg04 Rope2_Seg03
Rope2_Seg05 Rope2_Seg04
Rope2_Seg06 Rope2_Seg05
Rope2_Seg07 Rope2_Seg06
Rope2_Seg09 Rope2_Seg07
R_mid_hand01 Rope2_Seg09
R_mid_hand02 Rope2_Seg09
R_mid_hand03 Rope2_Seg09
spine02 spine01
spine03 spine02
pelvis spine03
null_rope03_connect pelvis
null_rope04_connect pelvis
Rope3_Seg01 null_rope03_connect
Rope3_Seg02 Rope3_Seg01
Rope3_Seg03 Rope3_Seg02
Rope3_Seg04 Rope3_Seg03
Rope3_Seg05 Rope3_Seg04
Rope3_Seg06 Rope3_Seg05
Rope3_Seg07 Rope3_Seg06
Rope3_Seg08 Rope3_Seg07
Rope3_Seg09 Rope3_Seg08
R_rear_hand01 Rope3_Seg09
R_rear_hand02 Rope3_Seg09
R_rear_hand03 Rope3_Seg09
Rope4_Seg01 null_rope04_connect
Rope4_Seg02 Rope4_Seg01
Rope4_Seg03 Rope4_Seg02
Rope4_Seg04 Rope4_Seg03
Rope4_Seg05 Rope4_Seg04
Rope4_Seg06 Rope4_Seg05
Rope4_Seg07 Rope4_Seg06
Rope4_Seg08 Rope4_Seg07
Rope4_Seg09 Rope4_Seg08
L_rear_hand01 Rope4_Seg09
L_rear_hand02 Rope4_Seg09
L_rear_hand03 Rope4_Seg09
[BasePosition]
#SegmentName Tx, Ty, Tz, Rx, Ry, Rz, BoneLength
MASTER 0.000000 0.000000 0.000000 -90.000000 0.000000 0.000000 10.000000 
root 0.000000 0.000000 0.000000 0.000000 0.000000 0.000000 10.000000 
chest 0.000000 0.000000 0.000000 0.000000 0.000000 0.000000 10.000000 
L_mid_tent01 0.000000 0.000000 0.000000 0.000000 0.000000 0.000000 10.000000 
R_mid_tent01 0.000000 0.000000 0.000000 0.000000 0.000000 0.000000 10.000000 
spine01 0.000000 0.000000 0.000000 0.000000 0.000000 0.000000 10.000000 
Bip01_Neck 0.000000 0.000000 0.000000 0.000000 0.000000 0.000000 10.000000 
L_humerus 0.000000 0.000000 0.000000 0.000000 0.000000 0.000000 10.000000 
R_humerus 0.000000 0.000000 0.000000 0.000000 0.000000 0.000000 10.000000 
weapon_bone 0.000000 0.000000 0.000000 0.000000 0.000000 0.000000 10.000000 
Bip01_Head 0.000000 0.000000 0.000000 0.000000 0.000000 0.000000 10.000000 
eye_left_bone 0.000000 0.000000 0.000000 0.000000 0.000000 0.000000 10.000000 
eye_right_bone 0.000000 0.000000 0.000000 0.000000 0.000000 0.000000 10.000000 
L_forearm 0.000000 0.000000 0.000000 0.000000 0.000000 0.000000 10.000000 
L_front_hand 0.000000 0.000000 0.000000 0.000000 0.000000 0.000000 10.000000 
L_weapon_bone 0.000000 0.000000 0.000000 0.000000 0.000000 0.000000 10.000000 
L_front_hand01_01 0.000000 0.000000 0.000000 0.000000 0.000000 0.000000 10.000000 
L_front_hand02_01 0.000000 0.000000 0.000000 0.000000 0.000000 0.000000 10.000000 
L_front_hand03_01 0.000000 0.000000 0.000000 0.000000 0.000000 0.000000 10.000000 
L_front_hand01_02 0.000000 0.000000 0.000000 0.000000 0.000000 0.000000 10.000000 
L_front_hand02_02 0.000000 0.000000 0.000000 0.000000 0.000000 0.000000 10.000000 
L_front_hand03_02 0.000000 0.000000 0.000000 0.000000 0.000000 0.000000 10.000000 
R_forearm 0.000000 0.000000 0.000000 0.000000 0.000000 0.000000 10.000000 
R_front_hand 0.000000 0.000000 0.000000 0.000000 0.000000 0.000000 10.000000 
R_weapon_bone 0.000000 0.000000 0.000000 0.000000 0.000000 0.000000 10.000000 
R_front_hand01_01 0.000000 0.000000 0.000000 0.000000 0.000000 0.000000 10.000000 
R_front_hand02_01 0.000000 0.000000 0.000000 0.000000 0.000000 0.000000 10.000000 
R_front_hand03_01 0.000000 0.000000 0.000000 0.000000 0.000000 0.000000 10.000000 
R_front_hand01_02 0.000000 0.000000 0.000000 0.000000 0.000000 0.000000 10.000000 
R_front_hand02_02 0.000000 0.000000 0.000000 0.000000 0.000000 0.000000 10.000000 
R_front_hand03_02 0.000000 0.000000 0.000000 0.000000 0.000000 0.000000 10.000000 
null_rope01_connect 0.000000 0.000000 0.000000 0.000000 0.000000 0.000000 10.000000 
Rope1_Seg01 0.000000 0.000000 0.000000 0.000000 0.000000 0.000000 10.000000 
Rope1_Seg02 0.000000 0.000000 0.000000 0.000000 0.000000 0.000000 10.000000 
Rope1_Seg03 0.000000 0.000000 0.000000 0.000000 0.000000 0.000000 10.000000 
Rope1_Seg04 0.000000 0.000000 0.000000 0.000000 0.000000 0.000000 10.000000 
Rope1_Seg05 0.000000 0.000000 0.000000 0.000000 0.000000 0.000000 10.000000 
Rope1_Seg06 0.000000 0.000000 0.000000 0.000000 0.000000 0.000000 10.000000 
Rope1_Seg07 0.000000 0.000000 0.000000 0.000000 0.000000 0.000000 10.000000 
Rope1_Seg09 0.000000 0.000000 0.000000 0.000000 0.000000 0.000000 10.000000 
L_mid_hand01 0.000000 0.000000 0.000000 0.000000 0.000000 0.000000 10.000000 
L_mid_hand02 0.000000 0.000000 0.000000 0.000000 0.000000 0.000000 10.000000 
L_mid_hand03 0.000000 0.000000 0.000000 0.000000 0.000000 0.000000 10.000000 
null_rope02_connect 0.000000 0.000000 0.000000 0.000000 0.000000 0.000000 10.000000 
Rope2_Seg01 0.000000 0.000000 0.000000 0.000000 0.000000 0.000000 10.000000 
Rope2_Seg02 0.000000 0.000000 0.000000 0.000000 0.000000 0.000000 10.000000 
Rope2_Seg03 0.000000 0.000000 0.000000 0.000000 0.000000 0.000000 10.000000 
Rope2_Seg04 0.000000 0.000000 0.000000 0.000000 0.000000 0.000000 10.000000 
Rope2_Seg05 0.000000 0.000000 0.000000 0.000000 0.000000 0.000000 10.000000 
Rope2_Seg06 0.000000 0.000000 0.000000 0.000000 0.000000 0.000000 10.000000 
Rope2_Seg07 0.000000 0.000000 0.000000 0.000000 0.000000 0.000000 10.000000 
Rope2_Seg09 0.000000 0.000000 0.000000 0.000000 0.000000 0.000000 10.000000 
R_mid_hand01 0.000000 0.000000 0.000000 0.000000 0.000000 0.000000 10.000000 
R_mid_hand02 0.000000 0.000000 0.000000 0.000000 0.000000 0.000000 10.000000 
R_mid_hand03 0.000000 0.000000 0.000000 0.000000 0.000000 0.000000 10.000000 
spine02 0.000000 0.000000 0.000000 0.000000 0.000000 0.000000 10.000000 
spine03 0.000000 0.000000 0.000000 0.000000 0.000000 0.000000 10.000000 
pelvis 0.000000 0.000000 0.000000 0.000000 0.000000 0.000000 10.000000 
null_rope03_connect 0.000000 0.000000 0.000000 0.000000 0.000000 0.000000 10.000000 
null_rope04_connect 0.000000 0.000000 0.000000 0.000000 0.000000 0.000000 10.000000 
Rope3_Seg01 0.000000 0.000000 0.000000 0.000000 0.000000 0.000000 10.000000 
Rope3_Seg02 0.000000 0.000000 0.000000 0.000000 0.000000 0.000000 10.000000 
Rope3_Seg03 0.000000 0.000000 0.000000 0.000000 0.000000 0.000000 10.000000 
Rope3_Seg04 0.000000 0.000000 0.000000 0.000000 0.000000 0.000000 10.000000 
Rope3_Seg05 0.000000 0.000000 0.000000 0.000000 0.000000 0.000000 10.000000 
Rope3_Seg06 0.000000 0.000000 0.000000 0.000000 0.000000 0.000000 10.000000 
Rope3_Seg07 0.000000 0.000000 0.000000 0.000000 0.000000 0.000000 10.000000 
Rope3_Seg08 0.000000 0.000000 0.000000 0.000000 0.000000 0.000000 10.000000 
Rope3_Seg09 0.000000 0.000000 0.000000 0.000000 0.000000 0.000000 10.000000 
R_rear_hand01 0.000000 0.000000 0.000000 0.000000 0.000000 0.000000 10.000000 
R_rear_hand02 0.000000 0.000000 0.000000 0.000000 0.000000 0.000000 10.000000 
R_rear_hand03 0.000000 0.000000 0.000000 0.000000 0.000000 0.000000 10.000000 
Rope4_Seg01 0.000000 0.000000 0.000000 0.000000 0.000000 0.000000 10.000000 
Rope4_Seg02 0.000000 0.000000 0.000000 0.000000 0.000000 0.000000 10.000000 
Rope4_Seg03 0.000000 0.000000 0.000000 0.000000 0.000000 0.000000 10.000000 
Rope4_Seg04 0.000000 0.000000 0.000000 0.000000 0.000000 0.000000 10.000000 
Rope4_Seg05 0.000000 0.000000 0.000000 0.000000 0.000000 0.000000 10.000000 
Rope4_Seg06 0.000000 0.000000 0.000000 0.000000 0.000000 0.000000 10.000000 
Rope4_Seg07 0.000000 0.000000 0.000000 0.000000 0.000000 0.000000 10.000000 
Rope4_Seg08 0.000000 0.000000 0.000000 0.000000 0.000000 0.000000 10.000000 
Rope4_Seg09 0.000000 0.000000 0.000000 0.000000 0.000000 0.000000 10.000000 
L_rear_hand01 0.000000 0.000000 0.000000 0.000000 0.000000 0.000000 10.000000 
L_rear_hand02 0.000000 0.000000 0.000000 0.000000 0.000000 0.000000 10.000000 
L_rear_hand03 0.000000 0.000000 0.000000 0.000000 0.000000 0.000000 10.000000 
#Beginning of Data. Separated by tabs
#Fr	Tx	Ty	Tz	Rx	Ry	Rz	SF
[MASTER]
28 0.000000 0.000000 0.000000 0.001660 0.001660 0.001660 0.000000
29 0.000000 0.000000 0.000000 0.001660 0.001660 0.001660 0.000000
[root]
28 -12.248568 -62.776455 1499.470703 -91.688301 -26.889500 -90.179054 1500.834229
29 -12.767607 -62.783859 1499.597412 -91.677925 -27.070015 -90.171211 1500.965454
[chest]
28 -84.512650 -34.090519 0.000000 -4.883928 1.981831 -178.071045 91.129311
29 -84.512650 -34.090519 0.000000 -4.883928 1.981831 -178.071045 91.129311
[L_mid_tent01]
28 27.299540 22.177500 -249.917984 4.825085 36.127712 82.976570 252.380875
29 27.299534 22.177507 -249.917984 4.727819 36.137764 82.814552 252.380875
[R_mid_tent01]
28 23.228794 24.509907 226.238495 158.590149 -47.657791 89.982834 228.744751
29 23.228794 24.509907 226.238495 158.737976 -47.614883 89.814545 228.744751
[spine01]
28 -0.361383 -0.195265 0.000000 0.840989 0.446373 15.483044 0.410763
29 -0.361383 -0.195265 0.000000 0.840990 0.446373 15.483050 0.410763
[Bip01_Neck]
28 165.484543 71.581718 0.000119 175.896118 1.177290 24.871183 180.302734
29 165.484543 71.581718 0.000119 175.896118 1.177290 24.871183 180.302734
[L_humerus]
28 -13.983130 -135.272980 -120.471481 176.312164 71.807091 -104.137955 181.680161
29 -13.983130 -135.272980 -120.471481 178.525436 72.752228 -98.252449 181.680161
[R_humerus]
28 -13.983309 -135.273102 125.287651 -151.460236 -66.343269 -132.539215 184.909012
29 -13.983309 -135.273102 125.287651 -152.024704 -65.485901 -129.773727 184.909012
[weapon_bone]
28 235.964890 -300.705902 0.000000 0.000000 -89.951546 -128.212341 382.234833
29 235.964890 -300.705902 0.000000 0.000000 -89.951546 -128.212341 382.234833
[Bip01_Head]
28 261.355835 108.959389 -2.864218 2.248029 5.843378 -62.458351 283.173492
29 261.355835 108.959404 -2.864216 2.248029 5.843377 -62.458344 283.173492
[eye_left_bone]
28 -24.626970 125.451866 -64.772606 0.000000 -90.000000 -99.840431 143.318359
29 -24.626970 125.451866 -64.772606 0.000000 -90.000000 -99.840431 143.318359
[eye_right_bone]
28 -24.626970 125.451866 64.327362 0.000000 -89.960434 80.159386 143.117676
29 -24.626970 125.451866 64.327362 0.000000 -89.960434 80.159386 143.117676
[L_forearm]
28 322.776093 0.000000 -0.000119 0.000071 -0.002346 -93.445839 322.776093
29 322.776093 0.000000 -0.000119 0.000071 -0.002346 -93.445847 322.776093
[L_front_hand]
28 241.149185 -0.042021 -3.300071 -178.982147 -2.028202 -18.112164 241.171753
29 241.149185 -0.042021 -3.300071 -178.854675 -1.957391 -21.765102 241.171753
[L_weapon_bone]
28 156.183838 0.000000 0.000000 0.001928 0.001352 19.914114 156.183838
29 156.183838 0.000000 0.000000 0.001802 0.001504 10.327304 156.183838
[L_front_hand01_01]
28 86.095154 20.947098 -0.655860 0.405260 -0.442604 -4.536347 88.609184
29 86.095154 20.947098 -0.655860 0.405451 -0.442429 -4.585840 88.609184
[L_front_hand02_01]
28 86.935165 -11.437475 24.513514 116.959084 3.563429 1.461274 91.046425
29 86.935165 -11.437475 24.513514 116.959229 3.592428 1.475435 91.046425
[L_front_hand03_01]
28 86.637497 -14.123976 -20.424902 -118.420158 -4.593603 -0.190060 90.126129
29 86.637497 -14.123976 -20.424902 -118.420074 -4.623688 -0.173421 90.126129
[L_front_hand01_02]
28 71.020905 -0.000179 0.000030 0.001534 0.001777 -8.378848 71.020905
29 71.020905 -0.000179 0.000030 0.001534 0.001777 -8.378850 71.020905
[L_front_hand02_02]
28 71.020927 -0.000119 0.000060 0.001534 0.001777 -8.378848 71.020927
29 71.020927 -0.000119 0.000060 0.001534 0.001777 -8.378850 71.020927
[L_front_hand03_02]
28 71.020905 -0.000060 0.000060 0.001534 0.001777 -8.378848 71.020905
29 71.020905 -0.000060 0.000060 0.001534 0.001777 -8.378850 71.020905
[R_forearm]
28 322.776428 -0.000060 0.000030 0.213295 0.003866 -91.459335 322.776428
29 322.776428 -0.000060 0.000030 0.213295 0.003866 -91.459335 322.776428
[R_front_hand]
28 238.847015 -0.006795 2.210259 -1.311396 1.119514 -38.268257 238.857239
29 238.847015 -0.006795 2.210259 -1.393258 1.015384 -42.664459 238.857239
[R_weapon_bone]
28 155.664093 0.002503 -0.000030 0.003125 0.001944 -117.380203 155.664078
29 155.664093 0.002503 -0.000030 0.003238 0.001750 -110.392464 155.664078
[R_front_hand01_01]
28 87.624611 14.231146 22.918642 -116.959953 3.445487 -1.297454 91.683487
29 87.624611 14.231146 22.918642 -116.960052 3.469788 -1.308685 91.683487
[R_front_hand02_01]
28 89.356956 14.367283 -19.491137 118.419937 -4.206249 0.637120 92.579636
29 89.356956 14.367283 -19.491137 118.419838 -4.223197 0.628023 92.579636
[R_front_hand03_01]
28 87.286232 -22.307278 -0.143439 -0.387840 -0.231679 4.167662 90.091743
29 87.286232 -22.307278 -0.143439 -0.387920 -0.231545 4.207252 90.091743
[R_front_hand01_02]
28 71.020905 0.000060 0.000119 0.001777 0.001534 8.377220 71.020905
29 71.020905 0.000060 0.000119 0.001777 0.001534 8.377220 71.020905
[R_front_hand02_02]
28 71.020844 -0.000030 -0.000119 0.001777 0.001534 8.377220 71.020836
29 71.020844 -0.000030 -0.000119 0.001777 0.001534 8.377220 71.020836
[R_front_hand03_02]
28 71.020905 0.000000 0.000030 0.001777 0.001534 8.377220 71.020905
29 71.020905 0.000000 0.000030 0.001777 0.001534 8.377220 71.020905
[null_rope01_connect]
28 328.732483 0.000000 -0.000238 -138.340393 -51.843952 173.931427 328.732483
29 328.732483 0.000000 -0.000238 -138.177399 -51.859837 174.079773 328.732483
[Rope1_Seg01]
28 0.000038 0.000000 0.000000 80.091286 51.363548 94.929893 0.000038
29 0.000034 0.000000 0.000000 80.541237 49.784077 95.303513 0.000034
[Rope1_Seg02]
28 139.999863 -0.000179 0.000000 0.430876 -3.648110 8.789586 139.999863
29 139.999863 -0.000179 0.000000 0.352544 -3.611632 7.735360 139.999863
[Rope1_Seg03]
28 139.999924 0.000060 -0.000060 1.837361 -3.118342 11.052853 139.999924
29 139.999924 0.000060 -0.000060 1.358274 -3.273010 9.493868 139.999924
[Rope1_Seg04]
28 139.999924 -0.000060 -0.000119 3.720062 -3.843138 13.105734 139.999924
29 139.999924 -0.000060 -0.000119 2.798864 -4.101434 11.743865 139.999924
[Rope1_Seg05]
28 139.999832 0.000119 -0.000060 -3.856111 -9.850664 6.784432 139.999832
29 139.999832 0.000119 -0.000060 -2.890213 -9.495806 7.618849 139.999832
[Rope1_Seg06]
28 139.999954 0.000119 -0.000060 -3.431724 -5.489591 2.801782 139.999954
29 139.999954 0.000119 -0.000060 -2.523171 -5.202024 3.350388 139.999954
[Rope1_Seg07]
28 139.999985 0.000060 0.000000 -1.699103 -2.958990 1.861500 139.999985
29 139.999985 0.000060 0.000000 -1.198379 -2.815928 2.119061 139.999985
[Rope1_Seg09]
28 121.602913 0.000119 -0.000089 -89.790619 -1.359656 0.847385 121.602913
29 121.602913 0.000119 -0.000089 -89.790619 -1.359656 0.847385 121.602913
[L_mid_hand01]
28 103.859421 1.038730 8.195221 121.160576 -61.371819 -28.489063 104.187431
29 103.859421 1.038730 8.195221 119.836395 -60.112331 -26.972134 104.187431
[L_mid_hand02]
28 105.572853 -4.139662 -10.864139 -162.146591 41.494339 -63.478264 106.211075
29 105.572853 -4.139662 -10.864139 -160.929672 41.032028 -61.635551 106.211075
[L_mid_hand03]
28 104.641464 17.579376 -3.913581 -8.382427 16.850365 66.957481 106.179977
29 104.641464 17.579376 -3.913581 -8.815150 16.631702 65.451157 106.179977
[null_rope02_connect]
28 328.732849 0.000179 -0.000119 -124.568375 40.467609 19.302099 328.732849
29 328.732849 0.000179 -0.000119 -124.388199 40.537823 19.217316 328.732849
[Rope2_Seg01]
28 0.000095 0.000153 0.000057 -62.528690 35.808105 24.883795 0.000189
29 0.000095 0.000153 0.000059 -59.897011 33.190258 27.239841 0.000189
[Rope2_Seg02]
28 139.999741 -0.000060 -0.000119 -1.497770 -8.883211 6.630353 139.999756
29 139.999741 -0.000060 -0.000119 -1.473570 -6.383143 5.991347 139.999756
[Rope2_Seg03]
28 140.000107 0.000030 0.000000 -1.704062 -11.754154 9.665254 140.000107
29 140.000107 0.000030 0.000000 -1.691933 -9.828499 9.251635 140.000107
[Rope2_Seg04]
28 139.999802 0.000000 -0.000060 -0.648261 -10.572658 14.844416 139.999802
29 139.999802 0.000000 -0.000060 -0.942324 -9.194586 19.255009 139.999802
[Rope2_Seg05]
28 139.999985 -0.000060 0.000119 -4.059155 -23.045189 2.309392 139.999985
29 139.999985 -0.000060 0.000119 -3.938987 -24.842258 5.137181 139.999985
[Rope2_Seg06]
28 139.999893 -0.000030 -0.000119 -8.466049 -14.694129 -4.331868 139.999893
29 139.999893 -0.000030 -0.000119 -10.580765 -15.491049 -6.536044 139.999893
[Rope2_Seg07]
28 139.999893 0.000060 -0.000060 -4.025507 -5.593126 -1.411932 139.999893
29 139.999893 0.000060 -0.000060 -4.398612 -5.319177 -1.875001 139.999893
[Rope2_Seg09]
28 121.338966 0.000089 -0.000060 52.574417 -1.013916 -1.238172 121.338966
29 121.338966 0.000089 -0.000060 53.658131 -0.991051 -1.258717 121.338966
[R_mid_hand01]
28 104.680779 11.144459 -10.335981 -19.999353 43.983723 65.071510 105.778534
29 104.680779 11.144459 -10.335981 -20.677366 43.722103 64.093567 105.778534
[R_mid_hand02]
28 104.070427 2.443552 8.231699 54.722557 -64.571999 33.111469 104.424065
29 104.070427 2.443552 8.231699 55.611748 -63.951191 32.124756 104.424065
[R_mid_hand03]
28 106.028137 -11.221827 -5.996406 -175.985153 15.308100 -72.402107 106.788818
29 106.028137 -11.221827 -5.996406 -175.781998 15.254764 -71.627296 106.788818
[spine02]
28 129.756927 0.001550 0.000119 -0.245322 -4.052060 -4.355547 129.756927
29 129.756927 0.001550 0.000119 -0.245322 -4.052060 -4.355547 129.756927
[spine03]
28 78.613808 0.087233 -4.898804 0.369659 4.260735 -4.885721 78.766342
29 78.613808 0.087222 -4.898804 0.369658 4.260732 -4.885719 78.766342
[pelvis]
28 169.435242 0.051022 0.000000 -0.010007 -0.191417 -1.897554 169.435257
29 169.435242 0.051022 0.000000 -0.010007 -0.191417 -1.897554 169.435257
[null_rope03_connect]
28 -1.257226 -2.466202 137.391083 -98.802460 -88.926254 -148.639191 137.418976
29 -1.257226 -2.466202 137.391083 -98.239471 -88.941307 -149.016937 137.418976
[null_rope04_connect]
28 -1.259640 -2.480268 -137.844437 -98.802460 -88.926254 -148.639191 137.872513
29 -1.259640 -2.480268 -137.844437 -98.239471 -88.941307 -149.016937 137.872513
[Rope3_Seg01]
28 0.000010 0.000010 -0.000038 -172.415543 -31.366961 -14.575599 0.000040
29 0.000010 0.000008 -0.000034 -170.456818 -31.208590 -16.057285 0.000036
[Rope3_Seg02]
28 139.999924 -0.000119 0.000060 -53.768036 6.350251 -23.538584 139.999924
29 139.999924 -0.000119 0.000060 -55.071320 5.923820 -25.006491 139.999924
[Rope3_Seg03]
28 139.999924 -0.000119 0.000119 -33.223072 31.487127 -1.318165 139.999924
29 139.999924 -0.000119 0.000119 -31.616184 28.839184 -0.973401 139.999924
[Rope3_Seg04]
28 139.999924 0.000119 0.000000 -16.476002 28.348534 -1.811875 139.999924
29 139.999924 0.000119 0.000000 -17.451912 25.964987 -2.599168 139.999924
[Rope3_Seg05]
28 139.999924 -0.000238 0.000060 -17.095602 41.681873 -13.235169 139.999924
29 139.999924 -0.000238 0.000060 -19.469618 43.339348 -12.442232 139.999924
[Rope3_Seg06]
28 139.999893 -0.000119 -0.000060 -0.197569 13.604527 -0.041805 139.999893
29 139.999893 -0.000119 -0.000060 -0.271691 15.097567 0.873693 139.999893
[Rope3_Seg07]
28 139.999771 0.000060 -0.000119 0.705132 5.486697 0.317686 139.999771
29 139.999771 0.000060 -0.000119 0.755067 5.830813 0.693818 139.999771
[Rope3_Seg08]
28 139.999985 -0.000060 0.000000 0.737076 2.859795 0.128902 139.999985
29 139.999985 -0.000060 0.000000 0.771948 3.011863 0.318813 139.999985
[Rope3_Seg09]
28 90.185997 -0.000179 -0.000060 89.795311 -1.358474 -0.848592 90.185997
29 90.185997 -0.000179 -0.000060 89.795311 -1.358474 -0.848592 90.185997
[R_rear_hand01]
28 103.366196 -6.073594 -10.757982 -175.982849 24.354412 -69.736618 104.101845
29 103.366196 -6.073594 -10.757982 -175.185898 24.222181 -67.800156 104.101845
[R_rear_hand02]
28 100.509819 12.039542 -7.992327 -15.598332 35.932346 67.580170 101.543350
29 100.509819 12.039542 -7.992327 -16.816690 35.436184 65.491333 101.543350
[R_rear_hand03]
28 101.539970 5.215704 5.435467 74.549957 -68.178185 18.252352 101.819031
29 101.539970 5.215704 5.435467 75.627274 -66.467911 17.085112 101.819031
[Rope4_Seg01]
28 -0.000021 -0.000067 -0.000134 33.017365 -28.754473 -72.197517 0.000151
29 -0.000022 -0.000072 -0.000136 31.169474 -27.844862 -68.817749 0.000155
[Rope4_Seg02]
28 139.999985 0.000060 0.000119 -82.085670 -69.843071 138.457474 139.999985
29 139.999985 0.000060 0.000119 -65.420593 -69.389481 108.291107 139.999985
[Rope4_Seg03]
28 139.999924 0.000000 -0.000238 23.841803 -13.083193 15.957943 139.999924
29 139.999924 0.000000 -0.000238 22.936995 -19.958242 15.533874 139.999924
[Rope4_Seg04]
28 139.999985 0.000000 0.000119 12.185652 4.379893 16.720255 139.999985
29 139.999985 0.000000 0.000119 14.380916 0.434552 18.303593 139.999985
[Rope4_Seg05]
28 139.999802 -0.000060 -0.000119 9.756104 13.299440 24.382181 139.999802
29 139.999802 -0.000060 -0.000119 12.033855 9.649340 28.697710 139.999802
[Rope4_Seg06]
28 139.999924 0.000000 0.000060 1.738848 7.764783 11.177503 139.999924
29 139.999924 0.000000 0.000060 2.092219 6.716949 13.049778 139.999924
[Rope4_Seg07]
28 139.999802 0.000000 0.000000 0.271892 4.178187 5.908438 139.999802
29 139.999802 0.000000 0.000000 0.271929 3.449356 6.500076 139.999802
[Rope4_Seg08]
28 139.999924 0.000000 0.000119 -1.597459 2.364010 3.328348 139.999924
29 139.999924 0.000000 0.000119 -1.616141 1.913018 3.586486 139.999924
[Rope4_Seg09]
28 90.185791 0.000060 0.000060 -135.615601 2.225815 0.851109 90.185791
29 90.185791 0.000060 0.000060 -135.615601 2.225816 0.851109 90.185791
[L_rear_hand01]
28 101.696655 -8.392275 -7.654577 -14.791318 -36.230820 111.054283 102.329041
29 101.696655 -8.392275 -7.654577 -18.185806 -34.821255 116.894096 102.329041
[L_rear_hand02]
28 102.726799 -1.568258 5.773216 73.740578 69.269005 160.880005 102.900848
29 102.726799 -1.568258 5.773216 76.704094 64.481247 164.093964 102.900848
[L_rear_hand03]
28 104.552910 9.721220 -10.420293 -176.496017 -24.430340 -109.015533 105.519653
29 104.552910 9.721220 -10.420293 -174.273605 -24.034595 -114.429604 105.519653
